<svg xmlns="http://www.w3.org/2000/svg" height="14" viewBox="0 96 960 960" width="15"><path d="M212.309 875.999q-30.308 0-51.308-21t-21-51.308V268.309q0-30.308 21-51.308t51.308-21h535.382q30.308 0 51.308 21t21 51.308v217.537q-14.385-7.461-29.192-12.192-14.807-4.73-30.807-7.73V268.309q0-5.385-3.462-8.847-3.462-3.462-8.847-3.462H212.309q-5.385 0-8.847 3.462-3.462 3.462-3.462 8.847v360h168q9 27.384 30.192 47.384 21.193 20 48.347 28-1.077 15.385-.923 30.692.154 15.307 2.769 30.691-35.615-6.23-65.577-26.115-29.961-19.885-51.269-50.654H200v115.384q0 5.385 3.462 8.847 3.462 3.462 8.847 3.462h254.923q6.615 16.615 14.269 31.422 7.654 14.808 18.346 28.577H212.309Zm0-59.999H200 467.232 212.309Zm464.075 84.613-8.153-47.307q-17.001-5-29.809-11.846-12.807-6.846-25.346-18.693l-45.307 15.692-30.768-50.306 37.153-31.538q-4.693-16.231-4.693-33.308 0-17.077 4.693-33.693l-37.153-31.923 30.768-50.306 45.307 15.692q12.154-11.462 25.539-18.5 13.385-7.039 29.616-12.039l8.153-47.307h59.999l8.153 47.307q16.231 4.616 29.424 11.846 13.192 7.231 25.731 18.693l45.307-15.692 30.768 50.306-37.153 31.923q5.077 17 4.885 33.885-.192 16.885-5.269 33.116l37.537 31.538-30.768 50.306-45.307-15.692q-12.539 11.462-25.346 18.5-12.808 7.039-29.809 12.039l-8.153 47.307h-59.999Zm30-94.614q34.153 0 58.615-24.461 24.462-24.462 24.462-58.616 0-34.154-24.462-58.615-24.462-24.462-58.615-24.462-34.154 0-58.616 24.462-24.462 24.461-24.462 58.615t24.462 58.616q24.462 24.461 58.616 24.461Z"/></svg>